<?xml version="1.0" standalone="no"?>
<!DOCTYPE svg PUBLIC "-//W3C//DTD SVG 20010904//EN"
 "http://www.w3.org/TR/2001/REC-SVG-20010904/DTD/svg10.dtd">
<svg version="1.0" xmlns="http://www.w3.org/2000/svg"
 width="1403.000000pt" height="1403.000000pt" viewBox="0 0 1403.000000 1403.000000"
 preserveAspectRatio="xMidYMid meet">
<metadata>
Created by potrace 1.11, written by Peter Selinger 2001-2013
</metadata>
<g transform="translate(0.000000,1403.000000) scale(0.100000,-0.100000)"
fill="#000000" stroke="none">
<path d="M9128 14025 c-2 -2 -21 -5 -43 -9 -57 -8 -96 -21 -156 -51 -128 -64
-66 24 -1461 -2069 -716 -1073 -1303 -1953 -1305 -1956 -3 -3 -11 4 -19 15
-12 16 -75 90 -119 139 -9 9 -329 391 -387 461 -54 65 -336 408 -403 490 -44
54 -84 103 -90 109 -5 6 -46 56 -90 111 -44 55 -93 113 -110 128 -282 267
-735 167 -878 -193 -14 -36 -29 -92 -32 -125 -4 -33 -9 -62 -10 -65 -2 -3 -6
-29 -10 -59 -4 -30 -9 -63 -11 -75 -2 -12 -6 -43 -9 -71 -4 -27 -14 -106 -25
-175 -10 -69 -21 -150 -25 -181 -3 -31 -7 -66 -9 -76 -3 -11 -7 -44 -11 -74
-3 -30 -8 -65 -10 -79 -2 -14 -7 -45 -10 -70 -3 -25 -8 -56 -10 -70 -2 -14 -7
-49 -10 -79 -4 -30 -8 -61 -10 -70 -1 -9 -6 -45 -10 -81 -4 -36 -9 -73 -11
-84 -2 -10 -6 -44 -10 -75 -3 -31 -7 -63 -9 -71 -1 -8 -6 -44 -10 -80 -4 -36
-9 -74 -11 -85 -2 -11 -6 -44 -10 -73 -3 -29 -7 -62 -9 -72 -2 -10 -6 -46 -10
-79 -3 -33 -7 -68 -9 -78 -2 -10 -7 -47 -11 -83 -4 -36 -9 -73 -11 -83 -2 -10
-8 -64 -14 -120 -6 -56 -13 -104 -15 -107 -2 -3 -6 -33 -9 -67 -3 -34 -10 -92
-15 -130 -5 -37 -12 -93 -16 -123 -3 -30 -8 -66 -10 -80 -3 -14 -7 -47 -10
-75 -3 -27 -12 -104 -20 -170 -8 -66 -18 -140 -21 -165 -3 -25 -9 -74 -14
-110 -5 -36 -11 -94 -15 -130 -3 -36 -8 -76 -10 -90 -9 -62 -20 -145 -31 -240
-2 -25 -7 -61 -9 -80 -3 -19 -7 -55 -10 -80 -3 -25 -7 -62 -10 -82 -3 -21 -7
-57 -10 -80 -3 -24 -7 -59 -10 -78 -6 -45 -13 -101 -20 -170 -4 -30 -8 -66
-10 -80 -2 -14 -6 -50 -10 -80 -3 -30 -8 -73 -12 -95 -3 -22 -6 -51 -8 -65
-10 -96 -18 -167 -20 -180 -2 -14 -5 -34 -21 -160 -3 -25 -7 -61 -9 -80 -2
-19 -6 -53 -9 -75 -3 -22 -8 -67 -11 -100 -4 -33 -8 -67 -11 -75 -2 -8 -6 -45
-9 -81 -3 -37 -7 -75 -9 -85 -2 -11 -7 -48 -11 -84 -3 -36 -8 -76 -10 -90 -2
-14 -6 -50 -10 -80 -3 -30 -8 -66 -10 -80 -2 -14 -7 -54 -11 -90 -3 -36 -8
-73 -10 -83 -2 -10 -6 -48 -10 -85 -3 -36 -8 -75 -10 -87 -4 -19 -7 -46 -19
-165 -3 -30 -7 -62 -10 -70 -2 -8 -7 -46 -10 -85 -4 -38 -8 -83 -10 -100 -2
-16 -9 -70 -15 -120 -6 -49 -13 -108 -16 -130 -7 -56 -13 -112 -20 -170 -3
-27 -7 -61 -9 -75 -2 -14 -7 -53 -10 -87 -3 -34 -7 -70 -9 -80 -2 -10 -7 -52
-11 -93 -4 -41 -9 -83 -10 -92 -2 -9 -6 -44 -10 -77 -3 -33 -7 -68 -9 -78 -2
-10 -7 -49 -10 -88 -4 -38 -9 -81 -11 -95 -2 -14 -7 -47 -10 -75 -3 -27 -7
-66 -10 -85 -11 -83 -17 -137 -20 -170 -3 -32 -7 -71 -20 -170 -2 -19 -7 -64
-10 -100 -3 -36 -8 -72 -10 -80 -2 -8 -7 -44 -11 -80 -10 -106 -13 -127 -18
-167 -3 -21 -8 -63 -11 -93 -3 -30 -8 -66 -10 -80 -2 -14 -6 -54 -10 -90 -4
-36 -8 -76 -10 -90 -2 -14 -7 -50 -10 -80 -3 -30 -8 -66 -10 -80 -2 -14 -7
-54 -10 -90 -3 -36 -8 -78 -11 -95 -3 -16 -7 -48 -9 -70 -4 -54 -26 -238 -40
-340 -2 -16 -7 -61 -10 -100 -4 -38 -9 -79 -11 -90 -2 -10 -6 -51 -10 -90 -3
-38 -8 -79 -10 -90 -2 -11 -6 -45 -9 -75 -3 -30 -7 -68 -10 -85 -27 -174 -27
-349 -1 -424 47 -136 148 -254 269 -314 40 -20 87 -39 106 -42 19 -3 39 -8 44
-12 15 -9 163 -5 220 6 29 6 72 13 97 16 24 4 47 8 50 10 3 2 23 6 45 9 46 7
138 24 175 31 14 3 41 8 60 11 19 2 46 7 60 10 14 2 36 6 50 9 76 13 258 46
280 50 13 3 42 7 64 11 22 3 43 7 46 9 3 1 25 6 50 9 25 3 56 8 70 11 14 3 39
7 55 10 17 2 77 13 135 24 58 11 119 22 135 25 17 3 48 8 70 11 22 4 85 15
140 25 55 11 141 26 190 35 50 8 99 17 110 19 63 11 103 19 125 22 14 3 63 12
110 20 117 22 118 22 185 33 33 5 112 19 175 30 63 12 129 23 145 26 17 3 53
10 80 15 28 5 66 12 85 15 19 3 82 14 140 25 58 11 119 22 135 24 17 3 46 8
65 11 19 4 82 15 140 25 344 61 412 73 470 85 30 6 94 16 184 29 21 4 41 8 45
10 3 2 28 7 55 10 27 4 52 9 55 10 3 2 29 7 56 10 28 4 57 9 65 11 14 4 36 8
113 20 17 3 55 10 82 15 28 5 66 12 85 15 19 3 49 8 65 12 17 3 37 7 45 8 8 1
29 5 45 8 28 6 46 9 130 23 17 2 54 9 84 15 30 6 64 12 75 14 12 1 35 5 51 8
17 4 46 9 65 12 19 3 60 10 90 15 30 6 69 13 85 15 17 3 79 15 139 26 60 11
122 22 137 24 16 2 36 6 46 9 10 3 36 7 58 11 22 3 76 12 120 20 95 17 114 20
225 40 47 8 96 17 110 20 33 7 126 23 170 30 19 3 60 10 90 15 30 6 66 12 80
15 14 2 90 16 170 30 80 14 206 37 280 50 194 35 192 35 230 41 19 2 69 11
110 19 41 8 95 17 120 20 24 4 48 9 52 11 4 3 24 7 45 10 37 4 122 19 173 29
14 3 41 8 60 11 124 21 229 139 231 261 3 123 -52 218 -157 272 -55 29 -112
35 -192 21 -37 -6 -80 -13 -97 -16 -35 -5 -130 -22 -161 -28 -12 -2 -37 -7
-55 -10 -19 -3 -47 -8 -64 -11 -108 -20 -140 -25 -150 -25 -7 0 -11 18 -11 43
-1 46 -14 282 -29 522 -4 50 -8 119 -10 155 -1 36 -6 115 -9 175 -4 61 -9 144
-11 185 -11 203 -15 282 -20 355 -3 44 -7 123 -10 175 -2 52 -7 131 -10 175
-3 44 -7 123 -10 175 -3 52 -7 124 -10 160 -2 36 -7 115 -10 175 -9 170 -21
390 -30 530 -3 44 -7 130 -10 190 -4 61 -8 135 -10 165 -7 95 -15 248 -30 525
-2 50 -7 131 -10 180 -3 50 -8 124 -10 165 -2 41 -6 109 -9 150 -3 41 -7 129
-11 195 -3 66 -8 147 -10 180 -3 33 -7 110 -10 170 -3 61 -8 142 -10 182 -3
39 -7 113 -10 165 -6 118 -15 267 -20 338 -2 30 -6 109 -10 175 -3 66 -8 147
-10 180 -3 33 -7 112 -10 175 -3 63 -8 140 -10 170 -2 30 -6 109 -10 175 -6
126 -12 220 -20 345 -3 41 -7 122 -10 180 -3 58 -7 139 -10 180 -3 41 -7 122
-10 180 -3 58 -8 137 -10 175 -3 39 -7 117 -10 175 -3 58 -8 139 -11 180 -3
41 -7 113 -9 160 -7 126 -13 244 -19 340 -3 47 -8 128 -11 180 -3 52 -7 131
-10 175 -2 44 -7 127 -10 185 -3 58 -8 132 -10 165 -3 33 -7 110 -10 170 -3
61 -8 142 -10 180 -3 39 -7 115 -10 170 -3 55 -7 132 -10 170 -3 39 -7 113 -9
165 -6 113 -14 255 -21 365 -3 44 -7 125 -10 180 -3 55 -7 132 -10 170 -2 39
-7 120 -10 180 -4 61 -8 142 -10 180 -3 39 -7 111 -10 160 -3 50 -7 131 -10
180 -11 187 -15 253 -20 355 -10 201 -24 266 -79 363 -71 127 -207 229 -344
257 -46 10 -168 20 -174 15z"/>
</g>
</svg>
