<svg id="Layer_1" data-name="Layer 1" xmlns="http://www.w3.org/2000/svg" viewBox="0 0 94.11 94.11"><defs><style>.cls-1{fill:#f1bb41;}.cls-2{fill:#5c8ef0;}.cls-3{fill:#58af54;}.cls-4{fill:#de5141;}</style></defs><path class="cls-1" d="M25.72,55.41,22.94,65.82,12.75,66a40.07,40.07,0,0,1-.3-37.39h0l9.08,1.66,4,9a24,24,0,0,0,.22,16.09Z"/><path class="cls-2" d="M87.37,39.57A40,40,0,0,1,73.09,78.28h0L61.66,77.7,60.05,67.6A23.87,23.87,0,0,0,70.32,55.42H48.9V39.57H87.37Z"/><path class="cls-3" d="M73.09,78.28h0A40,40,0,0,1,12.75,66l13-10.62A23.82,23.82,0,0,0,60.05,67.6Z"/><path class="cls-4" d="M73.58,16.23l-13,10.62A23.81,23.81,0,0,0,25.5,39.32l-13-10.68h0A40.05,40.05,0,0,1,73.58,16.23Z"/></svg>